<svg width="402" height="31" viewBox="0 0 402 31" fill="none" xmlns="http://www.w3.org/2000/svg">
<path d="M33.5581 7.84L27.0781 30H21.0381L16.9981 14.52L12.9581 30H6.87813L0.358125 7.84H6.03813L9.95813 24.72L14.1981 7.84H20.1181L24.2781 24.68L28.1981 7.84H33.5581ZM66.3081 7.84L59.8281 30H53.7881L49.7481 14.52L45.7081 30H39.6281L33.1081 7.84H38.7881L42.7081 24.72L46.9481 7.84H52.8681L57.0281 24.68L60.9481 7.84H66.3081ZM99.0581 7.84L92.5781 30H86.5381L82.4981 14.52L78.4581 30H72.3781L65.8581 7.84H71.5381L75.4581 24.72L79.6981 7.84H85.6181L89.7781 24.68L93.6981 7.84H99.0581ZM103.568 30.28C102.555 30.28 101.715 29.9733 101.048 29.36C100.408 28.72 100.088 27.9333 100.088 27C100.088 26.0667 100.408 25.2933 101.048 24.68C101.715 24.04 102.555 23.72 103.568 23.72C104.555 23.72 105.368 24.04 106.008 24.68C106.648 25.2933 106.968 26.0667 106.968 27C106.968 27.9333 106.648 28.72 106.008 29.36C105.368 29.9733 104.555 30.28 103.568 30.28ZM109.039 18.84C109.039 16.6 109.479 14.6133 110.359 12.88C111.265 11.1467 112.492 9.81333 114.039 8.88C115.585 7.94667 117.305 7.48 119.199 7.48C120.639 7.48 122.012 7.8 123.319 8.44C124.625 9.05333 125.665 9.88 126.439 10.92V0.4H132.119V30H126.439V26.72C125.745 27.8133 124.772 28.6933 123.519 29.36C122.265 30.0267 120.812 30.36 119.159 30.36C117.292 30.36 115.585 29.88 114.039 28.92C112.492 27.96 111.265 26.6133 110.359 24.88C109.479 23.12 109.039 21.1067 109.039 18.84ZM126.479 18.92C126.479 17.56 126.212 16.4 125.679 15.44C125.145 14.4533 124.425 13.7067 123.519 13.2C122.612 12.6667 121.639 12.4 120.599 12.4C119.559 12.4 118.599 12.6533 117.719 13.16C116.839 13.6667 116.119 14.4133 115.559 15.4C115.025 16.36 114.759 17.5067 114.759 18.84C114.759 20.1733 115.025 21.3467 115.559 22.36C116.119 23.3467 116.839 24.1067 117.719 24.64C118.625 25.1733 119.585 25.44 120.599 25.44C121.639 25.44 122.612 25.1867 123.519 24.68C124.425 24.1467 125.145 23.4 125.679 22.44C126.212 21.4533 126.479 20.28 126.479 18.92ZM157.188 18.44C157.188 19.24 157.135 19.96 157.028 20.6H140.828C140.961 22.2 141.521 23.4533 142.508 24.36C143.495 25.2667 144.708 25.72 146.148 25.72C148.228 25.72 149.708 24.8267 150.588 23.04H156.628C155.988 25.1733 154.761 26.9333 152.948 28.32C151.135 29.68 148.908 30.36 146.268 30.36C144.135 30.36 142.215 29.8933 140.508 28.96C138.828 28 137.508 26.6533 136.548 24.92C135.615 23.1867 135.148 21.1867 135.148 18.92C135.148 16.6267 135.615 14.6133 136.548 12.88C137.481 11.1467 138.788 9.81333 140.468 8.88C142.148 7.94667 144.081 7.48 146.268 7.48C148.375 7.48 150.255 7.93333 151.908 8.84C153.588 9.74667 154.881 11.04 155.788 12.72C156.721 14.3733 157.188 16.28 157.188 18.44ZM151.388 16.84C151.361 15.4 150.841 14.2533 149.828 13.4C148.815 12.52 147.575 12.08 146.108 12.08C144.721 12.08 143.548 12.5067 142.588 13.36C141.655 14.1867 141.081 15.3467 140.868 16.84H151.388ZM158.836 18.92C158.836 16.6267 159.302 14.6267 160.236 12.92C161.169 11.1867 162.462 9.85333 164.116 8.92C165.769 7.96 167.662 7.48 169.796 7.48C172.542 7.48 174.809 8.17333 176.596 9.56C178.409 10.92 179.622 12.84 180.236 15.32H174.196C173.876 14.36 173.329 13.6133 172.556 13.08C171.809 12.52 170.876 12.24 169.756 12.24C168.156 12.24 166.889 12.8267 165.956 14C165.022 15.1467 164.556 16.7867 164.556 18.92C164.556 21.0267 165.022 22.6667 165.956 23.84C166.889 24.9867 168.156 25.56 169.756 25.56C172.022 25.56 173.502 24.5467 174.196 22.52H180.236C179.622 24.92 178.409 26.8267 176.596 28.24C174.782 29.6533 172.516 30.36 169.796 30.36C167.662 30.36 165.769 29.8933 164.116 28.96C162.462 28 161.169 26.6667 160.236 24.96C159.302 23.2267 158.836 21.2133 158.836 18.92ZM193.178 30.36C191.045 30.36 189.125 29.8933 187.418 28.96C185.711 28 184.365 26.6533 183.378 24.92C182.418 23.1867 181.938 21.1867 181.938 18.92C181.938 16.6533 182.431 14.6533 183.418 12.92C184.431 11.1867 185.805 9.85333 187.538 8.92C189.271 7.96 191.205 7.48 193.338 7.48C195.471 7.48 197.405 7.96 199.138 8.92C200.871 9.85333 202.231 11.1867 203.218 12.92C204.231 14.6533 204.738 16.6533 204.738 18.92C204.738 21.1867 204.218 23.1867 203.178 24.92C202.165 26.6533 200.778 28 199.018 28.96C197.285 29.8933 195.338 30.36 193.178 30.36ZM193.178 25.48C194.191 25.48 195.138 25.24 196.018 24.76C196.925 24.2533 197.645 23.5067 198.178 22.52C198.711 21.5333 198.978 20.3333 198.978 18.92C198.978 16.8133 198.418 15.2 197.298 14.08C196.205 12.9333 194.858 12.36 193.258 12.36C191.658 12.36 190.311 12.9333 189.218 14.08C188.151 15.2 187.618 16.8133 187.618 18.92C187.618 21.0267 188.138 22.6533 189.178 23.8C190.245 24.92 191.578 25.48 193.178 25.48ZM207.286 8.52C207.419 5.85333 208.353 3.8 210.086 2.36C211.846 0.893331 214.153 0.159998 217.006 0.159998C218.953 0.159998 220.619 0.506665 222.006 1.2C223.393 1.86666 224.433 2.78666 225.126 3.96C225.846 5.10667 226.206 6.41333 226.206 7.88C226.206 9.56 225.766 10.9867 224.886 12.16C224.033 13.3067 223.006 14.08 221.806 14.48V14.64C223.353 15.12 224.553 15.9733 225.406 17.2C226.286 18.4267 226.726 20 226.726 21.92C226.726 23.52 226.353 24.9467 225.606 26.2C224.886 27.4533 223.806 28.44 222.366 29.16C220.953 29.8533 219.246 30.2 217.246 30.2C214.233 30.2 211.779 29.44 209.886 27.92C207.993 26.4 206.993 24.16 206.886 21.2H212.326C212.379 22.5067 212.819 23.56 213.646 24.36C214.499 25.1333 215.659 25.52 217.126 25.52C218.486 25.52 219.526 25.1467 220.246 24.4C220.993 23.6267 221.366 22.64 221.366 21.44C221.366 19.84 220.859 18.6933 219.846 18C218.833 17.3067 217.259 16.96 215.126 16.96H213.966V12.36H215.126C218.913 12.36 220.806 11.0933 220.806 8.56C220.806 7.41333 220.459 6.52 219.766 5.88C219.099 5.24 218.126 4.92 216.846 4.92C215.593 4.92 214.619 5.26667 213.926 5.96C213.259 6.62667 212.873 7.48 212.766 8.52H207.286ZM229.471 6V0.839999H239.111V30H233.351V6H229.471ZM243.403 24.32V19.92L256.483 1.2H263.003V19.44H266.523V24.32H263.003V30H257.403V24.32H243.403ZM257.763 7.2L249.563 19.44H257.763V7.2ZM268.409 6V0.839999H278.049V30H272.289V6H268.409ZM297.701 8.12C297.434 7 296.968 6.16 296.301 5.6C295.661 5.04 294.728 4.76 293.501 4.76C291.661 4.76 290.301 5.50666 289.421 7C288.568 8.46666 288.128 10.8667 288.101 14.2C288.741 13.1333 289.674 12.3067 290.901 11.72C292.128 11.1067 293.461 10.8 294.901 10.8C296.634 10.8 298.168 11.1733 299.501 11.92C300.834 12.6667 301.874 13.76 302.621 15.2C303.368 16.6133 303.741 18.32 303.741 20.32C303.741 22.2133 303.354 23.9067 302.581 25.4C301.834 26.8667 300.728 28.0133 299.261 28.84C297.794 29.6667 296.048 30.08 294.021 30.08C291.248 30.08 289.061 29.4667 287.461 28.24C285.888 27.0133 284.781 25.3067 284.141 23.12C283.528 20.9067 283.221 18.1867 283.221 14.96C283.221 10.08 284.061 6.4 285.741 3.92C287.421 1.41333 290.074 0.159998 293.701 0.159998C296.501 0.159998 298.674 0.919998 300.221 2.44C301.768 3.96 302.661 5.85333 302.901 8.12H297.701ZM293.621 15.4C292.208 15.4 291.021 15.8133 290.061 16.64C289.101 17.4667 288.621 18.6667 288.621 20.24C288.621 21.8133 289.061 23.0533 289.941 23.96C290.848 24.8667 292.114 25.32 293.741 25.32C295.181 25.32 296.314 24.88 297.141 24C297.994 23.12 298.421 21.9333 298.421 20.44C298.421 18.8933 298.008 17.6667 297.181 16.76C296.381 15.8533 295.194 15.4 293.621 15.4ZM310.287 30.28C309.274 30.28 308.434 29.9733 307.767 29.36C307.127 28.72 306.807 27.9333 306.807 27C306.807 26.0667 307.127 25.2933 307.767 24.68C308.434 24.04 309.274 23.72 310.287 23.72C311.274 23.72 312.087 24.04 312.727 24.68C313.367 25.2933 313.687 26.0667 313.687 27C313.687 27.9333 313.367 28.72 312.727 29.36C312.087 29.9733 311.274 30.28 310.287 30.28ZM315.757 18.92C315.757 16.6267 316.224 14.6267 317.158 12.92C318.091 11.1867 319.384 9.85333 321.038 8.92C322.691 7.96 324.584 7.48 326.718 7.48C329.464 7.48 331.731 8.17333 333.518 9.56C335.331 10.92 336.544 12.84 337.158 15.32H331.118C330.798 14.36 330.251 13.6133 329.478 13.08C328.731 12.52 327.798 12.24 326.678 12.24C325.078 12.24 323.811 12.8267 322.878 14C321.944 15.1467 321.478 16.7867 321.478 18.92C321.478 21.0267 321.944 22.6667 322.878 23.84C323.811 24.9867 325.078 25.56 326.678 25.56C328.944 25.56 330.424 24.5467 331.118 22.52H337.158C336.544 24.92 335.331 26.8267 333.518 28.24C331.704 29.6533 329.438 30.36 326.718 30.36C324.584 30.36 322.691 29.8933 321.038 28.96C319.384 28 318.091 26.6667 317.158 24.96C316.224 23.2267 315.757 21.2133 315.757 18.92ZM350.1 30.36C347.967 30.36 346.047 29.8933 344.34 28.96C342.633 28 341.287 26.6533 340.3 24.92C339.34 23.1867 338.86 21.1867 338.86 18.92C338.86 16.6533 339.353 14.6533 340.34 12.92C341.353 11.1867 342.727 9.85333 344.46 8.92C346.193 7.96 348.127 7.48 350.26 7.48C352.393 7.48 354.327 7.96 356.06 8.92C357.793 9.85333 359.153 11.1867 360.14 12.92C361.153 14.6533 361.66 16.6533 361.66 18.92C361.66 21.1867 361.14 23.1867 360.1 24.92C359.087 26.6533 357.7 28 355.94 28.96C354.207 29.8933 352.26 30.36 350.1 30.36ZM350.1 25.48C351.113 25.48 352.06 25.24 352.94 24.76C353.847 24.2533 354.567 23.5067 355.1 22.52C355.633 21.5333 355.9 20.3333 355.9 18.92C355.9 16.8133 355.34 15.2 354.22 14.08C353.127 12.9333 351.78 12.36 350.18 12.36C348.58 12.36 347.233 12.9333 346.14 14.08C345.073 15.2 344.54 16.8133 344.54 18.92C344.54 21.0267 345.06 22.6533 346.1 23.8C347.167 24.92 348.5 25.48 350.1 25.48ZM392.288 7.52C395.008 7.52 397.194 8.36 398.848 10.04C400.528 11.6933 401.368 14.0133 401.368 17V30H395.768V17.76C395.768 16.0267 395.328 14.7067 394.448 13.8C393.568 12.8667 392.368 12.4 390.848 12.4C389.328 12.4 388.114 12.8667 387.208 13.8C386.328 14.7067 385.888 16.0267 385.888 17.76V30H380.288V17.76C380.288 16.0267 379.848 14.7067 378.968 13.8C378.088 12.8667 376.888 12.4 375.368 12.4C373.821 12.4 372.594 12.8667 371.688 13.8C370.808 14.7067 370.368 16.0267 370.368 17.76V30H364.768V7.84H370.368V10.52C371.088 9.58667 372.008 8.85333 373.128 8.32C374.274 7.78666 375.528 7.52 376.888 7.52C378.621 7.52 380.168 7.89333 381.528 8.64C382.888 9.36 383.941 10.4 384.688 11.76C385.408 10.48 386.448 9.45333 387.808 8.68C389.194 7.90667 390.688 7.52 392.288 7.52Z" fill="black"/>
</svg>
